<svg xmlns="http://www.w3.org/2000/svg" xmlns:xlink="http://www.w3.org/1999/xlink" width="0" height="0" style="position:absolute">

    <symbol id="angle-down" viewBox="0 0 658 1024">
        <path class="svg-color-main2" d="M614.286 420.57q0 7.43-5.714 13.144L342.286 700q-5.714 5.714-13.143 5.714T316 700L49.714 433.714Q44 428 44 420.57t5.714-13.142l28.57-28.57q5.715-5.715 13.144-5.715t13.143 5.714l224.572 224.57 224.57-224.57q5.715-5.714 13.144-5.714T580 378.857l28.57 28.57q5.714 5.715 5.714 13.144z"/>
    </symbol>

    <symbol id="angle-left" viewBox="0 0 366 1024">
        <path class="svg-color-main" d="M358.286 310.857q0 7.43-5.714 13.143l-224.57 224.57 224.57 224.572q5.714 5.714 5.714 13.143t-5.714 13.143l-28.57 28.57q-5.715 5.715-13.144 5.715T297.715 828L31.43 561.712Q25.714 556 25.714 548.57t5.714-13.143L297.714 269.14q5.714-5.713 13.143-5.713T324 269.14l28.572 28.572q5.714 5.714 5.714 13.143z"/>
    </symbol>

    <symbol id="angle-right" viewBox="0 0 366 1024">
        <path class="svg-color-main" d="M340 548.57q0 7.43-5.714 13.144L68 828q-5.714 5.714-13.143 5.714T41.714 828l-28.57-28.57q-5.715-5.715-5.715-13.144t5.713-13.143l224.57-224.57L13.144 324Q7.43 318.288 7.43 310.86t5.713-13.143l28.57-28.57q5.715-5.715 13.144-5.715T68 269.144L334.286 535.43Q340 541.144 340 548.573z"/>
    </symbol>

    <symbol id="angle-up" viewBox="0 0 658 1024">
        <path class="svg-color-main" d="M614.286 676.57q0 7.43-5.714 13.144l-28.57 28.57Q574.286 724 566.857 724t-13.143-5.715l-224.57-224.57-224.572 224.57Q98.86 724 91.43 724t-13.143-5.715l-28.57-28.57Q44 684 44 676.57t5.714-13.142l266.286-266.286q5.714-5.714 13.143-5.714t13.143 5.714l266.286 266.286q5.714 5.714 5.714 13.143z"/>
    </symbol>
</svg>